<?xml version="1.0" standalone="no"?>
<!DOCTYPE svg PUBLIC "-//W3C//DTD SVG 20010904//EN"
 "http://www.w3.org/TR/2001/REC-SVG-20010904/DTD/svg10.dtd">
<svg version="1.0" xmlns="http://www.w3.org/2000/svg"
 width="512.000000pt" height="512.000000pt" viewBox="0 0 512.000000 512.000000"
 preserveAspectRatio="xMidYMid meet">
<metadata>
Created by potrace 1.14, written by Peter Selinger 2001-2017
</metadata>
<g transform="translate(0.000000,512.000000) scale(0.100000,-0.100000)"
fill="#000000" stroke="none">
<path d="M2078 4896 c-21 -36 -38 -67 -38 -71 0 -3 -5 -11 -11 -18 -5 -7 -38
-61 -72 -122 -33 -60 -65 -111 -69 -113 -4 -2 -8 -8 -8 -13 0 -9 -42 -83 -129
-229 -11 -19 -30 -54 -42 -78 -12 -23 -25 -45 -30 -48 -9 -5 28 -83 46 -96 7
-5 7 -8 0 -8 -6 0 -5 -4 1 -8 6 -4 24 -30 40 -59 16 -29 58 -103 94 -165 36
-62 67 -117 69 -123 2 -5 7 -12 10 -15 3 -3 17 -25 30 -50 39 -73 46 -83 54
-94 4 -6 28 -45 52 -87 l44 -76 440 1 441 1 23 35 c12 19 34 56 47 83 14 26
28 47 32 47 5 0 8 5 8 11 0 6 29 60 65 120 36 61 65 113 65 116 0 3 9 16 20
30 11 14 17 29 14 34 -3 5 -1 9 4 9 5 0 14 10 20 23 6 12 24 45 40 72 16 28
38 66 49 85 11 19 29 50 41 69 20 33 20 35 3 60 -9 14 -22 37 -29 51 -7 14
-23 43 -37 65 -14 22 -29 50 -35 62 -5 11 -14 24 -20 28 -5 3 -8 11 -5 16 4 5
1 9 -4 9 -6 0 -11 4 -11 9 0 6 -22 47 -50 93 -27 46 -50 88 -50 95 0 6 -4 13
-9 15 -5 2 -39 57 -76 123 -37 66 -72 123 -77 126 -5 3 -11 15 -12 25 -3 18
-19 19 -452 21 l-449 3 -37 -64z"/>
<path d="M684 4133 c-8 -13 -11 -23 -7 -23 5 0 3 -4 -3 -8 -6 -4 -53 -81 -105
-172 -52 -91 -97 -166 -101 -168 -5 -2 -8 -8 -8 -13 0 -4 -20 -43 -45 -85 -25
-41 -45 -79 -45 -84 0 -5 -6 -15 -13 -22 -7 -7 -24 -33 -38 -58 -14 -25 -35
-61 -47 -81 l-20 -37 48 -81 c26 -44 45 -81 42 -81 -4 0 -2 -4 4 -8 6 -4 22
-27 36 -52 14 -25 38 -67 54 -95 15 -27 33 -53 38 -57 6 -4 7 -8 2 -8 -5 0 -2
-8 7 -18 8 -9 20 -28 26 -42 6 -14 20 -38 31 -55 10 -16 25 -41 33 -55 7 -14
23 -42 35 -62 52 -90 66 -114 76 -134 11 -20 16 -20 452 -20 406 1 442 2 458
19 10 9 15 17 12 17 -3 0 11 28 32 63 21 34 41 69 45 77 4 8 19 33 32 55 14
22 28 48 32 58 3 9 10 17 15 17 5 0 7 4 4 9 -3 5 1 14 9 21 8 7 15 19 15 26 0
8 5 14 10 14 6 0 10 5 10 10 0 6 11 28 24 49 14 21 22 42 19 45 -4 3 -2 6 3 6
5 0 18 17 29 38 11 20 24 40 30 44 5 4 6 8 1 8 -5 0 -2 7 5 16 7 9 34 53 60
98 32 55 43 83 35 88 -6 4 -7 8 -3 8 4 0 -4 17 -18 37 -14 21 -25 43 -25 50 0
7 -4 13 -10 13 -5 0 -10 7 -10 15 0 8 -5 15 -11 15 -5 0 -7 5 -4 10 3 6 1 10
-4 10 -6 0 -11 5 -11 11 0 6 -9 24 -21 40 -11 16 -17 29 -12 29 4 0 3 4 -3 8
-8 6 -141 231 -242 412 -14 25 -29 48 -34 51 -6 3 -9 9 -8 13 0 3 -3 14 -9 23
-8 16 -48 17 -451 18 l-441 0 -15 -22z"/>
<path d="M2110 3320 c-8 -5 -11 -10 -6 -10 5 0 2 -8 -6 -17 -8 -10 -32 -49
-53 -88 -21 -38 -44 -77 -51 -85 -7 -8 -14 -19 -15 -25 -1 -5 -11 -23 -20 -40
-10 -16 -18 -34 -18 -39 1 -5 -3 -12 -8 -15 -9 -7 -20 -24 -59 -93 -15 -26
-26 -49 -25 -52 0 -3 -9 -17 -20 -30 -12 -13 -20 -26 -19 -28 2 -3 -64 -117
-78 -133 -24 -29 -54 -105 -48 -122 4 -10 7 -20 6 -22 -1 -2 2 -7 7 -10 4 -3
14 -17 21 -30 8 -13 48 -83 90 -155 43 -72 84 -145 92 -161 8 -17 17 -32 20
-35 10 -10 41 -65 47 -82 3 -10 9 -18 14 -18 5 0 9 -5 9 -10 0 -6 28 -60 63
-120 l62 -109 445 0 445 -1 80 141 c44 77 89 157 100 177 12 20 29 49 39 65
10 15 14 27 10 27 -5 0 -4 4 2 8 10 6 87 130 107 172 4 8 18 33 32 55 13 22
29 51 35 65 6 14 18 32 26 41 11 12 12 19 4 24 -5 3 -8 11 -5 16 4 5 1 9 -4 9
-6 0 -11 4 -11 9 0 14 -72 135 -82 139 -4 2 -8 9 -8 16 0 11 -85 162 -107 191
-5 6 -18 28 -29 50 -50 95 -119 211 -129 217 -6 5 -6 8 0 8 6 0 6 3 0 8 -6 4
-22 28 -35 55 l-25 47 -440 0 c-267 0 -446 -4 -455 -10z"/>
<path d="M3593 2522 c-46 -2 -63 -7 -63 -17 0 -7 -6 -20 -12 -27 -13 -13 -29
-40 -65 -108 -10 -19 -20 -37 -23 -40 -3 -3 -30 -48 -59 -100 -30 -52 -61
-103 -69 -112 -8 -10 -12 -18 -8 -18 4 0 -2 -13 -13 -29 -12 -16 -21 -34 -21
-39 0 -6 -4 -12 -8 -14 -5 -1 -28 -39 -52 -83 -24 -44 -47 -82 -50 -85 -4 -3
-10 -15 -14 -27 -4 -13 -12 -23 -17 -23 -6 0 -8 -4 -4 -9 3 -5 1 -12 -5 -16
-20 -12 -9 -38 81 -193 50 -86 105 -182 122 -212 30 -54 132 -229 188 -323 16
-27 29 -53 29 -58 0 -5 176 -9 443 -9 417 0 445 1 460 18 10 10 17 22 17 25 0
4 18 37 40 73 22 36 40 67 40 69 0 2 28 50 62 107 33 56 61 108 61 115 0 7 6
14 14 17 7 3 13 10 13 15 0 5 26 54 58 108 32 54 61 105 65 113 4 8 20 37 36
64 l29 50 -22 35 c-24 37 -60 101 -92 161 -11 19 -22 37 -25 40 -3 3 -12 17
-20 32 -40 76 -93 164 -103 170 -6 4 -7 8 -3 8 5 0 -1 13 -12 29 -12 16 -21
34 -21 40 0 6 -4 11 -8 11 -8 0 -36 60 -33 73 0 4 -3 7 -9 7 -5 0 -18 17 -28
38 -25 51 -44 83 -63 105 -16 17 -39 18 -395 20 -209 1 -407 1 -441 -1z"/>
<path d="M687 2502 c-10 -10 -17 -22 -17 -26 0 -4 -9 -21 -21 -37 -11 -16 -17
-29 -12 -29 4 0 3 -4 -3 -8 -6 -4 -28 -38 -49 -77 -21 -38 -42 -72 -45 -75 -7
-6 -22 -43 -20 -49 1 -2 -2 -7 -7 -10 -9 -6 -101 -160 -144 -241 -13 -25 -26
-47 -29 -50 -3 -3 -12 -18 -20 -35 -8 -16 -28 -49 -43 -72 l-28 -43 19 -27
c10 -16 22 -35 25 -43 4 -8 20 -37 37 -65 17 -27 36 -61 43 -75 6 -14 14 -27
17 -30 3 -3 30 -48 59 -100 30 -52 59 -98 65 -102 6 -4 7 -8 3 -8 -5 0 1 -13
12 -29 11 -15 18 -31 14 -35 -3 -3 -2 -6 3 -6 5 0 18 -17 29 -37 11 -21 22
-40 25 -43 5 -5 29 -48 71 -127 l23 -43 448 0 c392 0 448 2 448 15 0 8 5 15
12 15 6 0 8 3 5 7 -4 3 -1 13 7 22 8 9 26 41 42 71 16 30 36 64 46 74 9 10 15
22 13 27 -3 4 1 14 9 21 7 8 31 45 51 84 21 38 42 71 47 72 4 2 8 9 9 15 0 7
34 68 75 137 40 69 79 137 85 153 6 15 15 27 20 27 19 0 8 44 -26 101 -19 33
-35 64 -35 70 0 5 -4 9 -10 9 -5 0 -10 5 -10 11 0 6 -9 24 -21 40 -11 16 -17
29 -12 29 4 0 3 4 -3 8 -10 7 -24 30 -117 197 -28 50 -53 92 -56 95 -3 3 -14
20 -24 38 -43 81 -53 97 -64 109 -6 7 -15 23 -19 36 -18 60 4 57 -474 57 -411
0 -438 -1 -453 -18z"/>
<path d="M2108 1681 c-7 -9 -20 -30 -28 -46 -8 -17 -32 -58 -52 -93 -21 -34
-38 -67 -38 -72 0 -6 -4 -10 -10 -10 -5 0 -10 -4 -10 -9 0 -13 -151 -275 -161
-279 -5 -2 -9 -12 -9 -22 0 -10 -6 -25 -13 -32 -7 -7 -27 -38 -44 -68 -16 -30
-39 -70 -50 -89 l-21 -33 21 -37 c11 -20 27 -44 35 -53 8 -10 12 -18 8 -18 -4
0 2 -13 13 -29 12 -16 21 -34 21 -40 0 -6 5 -11 10 -11 6 0 10 -7 10 -15 0 -8
5 -15 11 -15 5 0 7 -4 4 -10 -3 -5 -1 -10 5 -10 6 0 9 -4 6 -9 -4 -5 -3 -11 2
-13 7 -3 146 -238 197 -333 29 -55 61 -107 77 -125 7 -8 12 -17 12 -20 -7 -29
13 -30 450 -30 372 1 444 3 460 15 11 8 17 15 13 15 -4 0 16 38 43 85 28 46
53 92 57 102 4 10 12 23 17 30 22 25 31 39 34 53 2 7 12 26 23 41 10 15 19 32
19 38 0 6 4 11 8 11 5 0 14 16 22 35 8 19 17 35 20 35 3 0 12 16 20 35 8 19
17 35 20 35 3 0 12 16 20 35 8 19 17 35 22 35 4 0 8 6 9 13 0 6 20 44 44 82
29 48 39 72 32 77 -7 4 -8 8 -4 8 7 0 -20 58 -34 70 -5 5 -26 43 -97 170 -14
25 -29 47 -34 48 -4 2 -8 8 -8 13 0 6 -25 54 -56 107 -81 139 -100 172 -146
253 -7 13 -19 32 -27 42 -8 9 -11 17 -7 17 4 0 0 8 -10 18 -16 16 -52 17 -455
18 -388 0 -439 -1 -451 -15z"/>
</g>
</svg>
